# xmcd
#
# Track frame offsets:
#	150
#	12991
#	25848
#	37367
#	48641
#	61649
#	71533
#	83931
#	97354
#	110239
#	122011
#	131499
#	144646
#	156761
#	168708
#	180068
#	190583
#	203009
#	214914
#	226874
#	239998
#	251007
#	260281
#	269065
#	280727
#	291281
#	302322
#	312333
#	322781
#	335660
#
# Disc length: 4668 seconds
#
# Revision: 1
# Processed by: cddbd v1.5.1PL0 Copyright (c) Steve Scherf et al.
# Submitted via: audiograbber 1.83.01
#
DISCID=c4123a1e
DTITLE=Ann Cole - In The Chapel
DYEAR=1900
DGENRE=Rhythm and Blues
TTITLE0=In The Chapel
TTITLE1=Have Fun
TTITLE2=Got My Mojo Working
TTITLE3=I've Got Nothing Working Now
TTITLE4=Please Forgive Me
TTITLE5=You're Mine
TTITLE6=The Clock Of Love
TTITLE7=Danny Boy
TTITLE8=I Want To Be A Big Girl
TTITLE9=Easy Easy Baby
TTITLE10=Don't Stop The Wedding
TTITLE11=Smilin' Through
TTITLE12=Down In The Valley
TTITLE13=The Love In My Heart
TTITLE14=Are You Satisfied
TTITLE15=Brand New Hearts
TTITLE16=Darling Don't Hurt Me
TTITLE17=So Proud Of You
TTITLE18=New Love
TTITLE19=My Tearful Heart
TTITLE20=I've Got A Little Boy
TTITLE21=Summer Nights
TTITLE22=Plain As The Nose On Your Face
TTITLE23=A Love Of My Own
TTITLE24=Each Day
TTITLE25=I'm Waiting For You
TTITLE26=Give Me Love Or Nothing
TTITLE27=No Star Is Lost
TTITLE28=In The Chapel (Alternate version)
TTITLE29=Easy Easy Baby (Live)
EXTD=Blue City label.
EXTT0=
EXTT1=
EXTT2=
EXTT3=
EXTT4=
EXTT5=
EXTT6=
EXTT7=
EXTT8=
EXTT9=
EXTT10=
EXTT11=
EXTT12=
EXTT13=
EXTT14=
EXTT15=
EXTT16=
EXTT17=
EXTT18=
EXTT19=
EXTT20=
EXTT21=
EXTT22=
EXTT23=
EXTT24=
EXTT25=
EXTT26=
EXTT27=
EXTT28=
EXTT29=
PLAYORDER=
